<?xml version="1.0" encoding="UTF-8"?><svg xmlns="http://www.w3.org/2000/svg" xmlns:xlink="http://www.w3.org/1999/xlink" version="1.1" id="Layer_1" x="0px" y="0px" viewBox="0 0 128 128" xml:space="preserve"><style type="text/css">.st0{fill:none;stroke:#FFFFFF;stroke-width:4;stroke-linecap:round;stroke-linejoin:round;stroke-miterlimit:10;} .st1{fill:#2D2C2C;} .st2{fill:#FFFFFF;}</style><path class="st1" d="M108.4 96.7c0-.2-.1-.4-.1-.5L96 40.1c-.2-1-.6-1.9-1.2-2.7L69.4 2.7C68.2 1 66.2 0 64.1 0h-.2c-2.1 0-4.1 1-5.3 2.7L33.2 37.4c-.6.8-1 1.7-1.2 2.6L19.7 96.2c0 .1 0 .2-.1.3-.2.9-.1 1.9.1 2.8.1.4.3.9.5 1.3.6 1.1 1.4 2 2.4 2.7L60.4 127c1.1.7 2.3 1 3.5 1h.1c1.2 0 2.5-.4 3.5-1l36.7-23 2-1.4c.6-.5 1.1-1.2 1.5-1.9.2-.4.4-.9.5-1.4.3-.9.3-1.7.2-2.6z" fill="#2D2C2C"/><path class="st2" d="M103.7 97.3v-.1L91.4 41.1c0-.2-.1-.3-.2-.5 0 0 0-.1-.1-.1 0-.1-.1-.2-.1-.2L65.6 5.5c-.4-.5-1-.8-1.6-.8-.6 0-1.2.3-1.6.8L37 40.2c-.2.2-.3.5-.4.8L24.3 97.2c0 .2-.1.4 0 .6 0 .3.1.5.3.8.2.3.4.5.7.7L62.9 123c.3.2.7.3 1.1.3.4 0 .7-.1 1.1-.3l37.7-23.6c.3-.2.6-.5.7-.8.1-.1.1-.2.1-.4.2-.3.2-.6.1-.9zM97 85.2L84.6 63.3l4.5-14.1 7.9 36zM66 12.8l21.2 29-5.3 16.8L66 30.5V12.8zm-2 22.3l16.2 28.7-10.1 31.9H57.9L47.8 63.8 64 35.1zm-2-22.3v17.7l-15.9 28-5.3-16.8L62 12.8zM38.9 49.2l4.5 14.1L31 85.2l7.9-36zm6.2 19.3l8.6 27.2h-24l15.4-27.2zM33.2 99.7H55l5.4 17-27.2-17zM64 114.8l-4.8-15.1h9.6L64 114.8zm3.6 1.9l5.4-17h21.8l-27.2 17zm6.7-21l8.6-27.2 15.4 27.2h-24z" fill="#FFF"/><metadata><rdf:RDF xmlns:rdf="http://www.w3.org/1999/02/22-rdf-syntax-ns#" xmlns:rdfs="http://www.w3.org/2000/01/rdf-schema#" xmlns:dc="http://purl.org/dc/elements/1.1/"><rdf:Description about="https://iconscout.com/legal#licenses" dc:title="eos" dc:description="eos" dc:publisher="Iconscout" dc:date="2018-01-14" dc:format="image/svg+xml" dc:language="en"><dc:creator><rdf:Bag><rdf:li>Icon Mafia</rdf:li></rdf:Bag></dc:creator></rdf:Description></rdf:RDF></metadata></svg>
