<?xml version="1.0" encoding="UTF-8"?>
<svg xmlns="http://www.w3.org/2000/svg"
     xmlns:xlink="http://www.w3.org/1999/xlink" version="1.1" id="Layer_1"
     x="0px" y="0px" viewBox="0 0 128 128" xml:space="preserve"><style
        type="text/css">.st0{fill:#309282;}</style>
    <path class="st0"
          d="M106.8 100.1L93.5 39.2c-.1-.3-.2-.6-.4-.8L65.6.8c-.4-.5-1-.8-1.6-.8s-1.2.3-1.6.8L34.9 38.4c-.2.2-.3.5-.4.8L21.2 100v.9c0 .1.1.3.1.4.1.3.4.6.7.8h.1l40.8 25.6c.3.2.7.3 1.1.3.4 0 .7-.1 1.1-.3l40.8-25.6h.1c.3-.2.5-.5.7-.8.1-.1.1-.3.1-.4.1-.2.1-.5 0-.8zm-6.7-12.2l-14-24.7 5.1-16 8.9 40.7zM66 8.1L89.3 40l-5.9 18.6L66 27.8V8.1zm-2 24.3l17.8 31.3-11 34.7H57.3l-11-34.7L64 32.4zM62 8.1v19.7L44.6 58.5 38.7 40 62 8.1zM36.8 47.3l5.1 16-14 24.7 8.9-40.7zm6.8 21.2l9.5 30H26.6l17-30zm-13.5 33.9h24.3l6 19-30.3-19zM64 119.5l-5.4-17.1h10.9L64 119.5zm3.6 1.9l6-19h24.3l-30.3 19zm7.3-23l9.5-30 17 30H74.9z"
          fill="#2D2C2C"/>
    <metadata><rdf:RDF xmlns:rdf="http://www.w3.org/1999/02/22-rdf-syntax-ns#" xmlns:rdfs="http://www.w3.org/2000/01/rdf-schema#" xmlns:dc="http://purl.org/dc/elements/1.1/"><rdf:Description about="https://iconscout.com/legal#licenses" dc:title="eos" dc:description="eos" dc:publisher="Iconscout" dc:date="2018-01-14" dc:format="image/svg+xml" dc:language="en"><dc:creator><rdf:Bag><rdf:li>Icon Mafia</rdf:li></rdf:Bag></dc:creator></rdf:Description></rdf:RDF></metadata></svg>
