<svg xmlns="http://www.w3.org/2000/svg" width="60" height="72" viewBox="0 0 60 72"><g><g><g><path d="M52.5 57c-4.137 0-7.5-3.366-7.5-7.5s3.363-7.5 7.5-7.5c4.137 0 7.5 3.366 7.5 7.5S56.637 57 52.5 57m0-12a4.505 4.505 0 0 0-4.5 4.5c0 2.481 2.019 4.5 4.5 4.5s4.5-2.019 4.5-4.5-2.019-4.5-4.5-4.5"/></g><g><path d="M58.499 72c-.228 0-.456-.054-.672-.159l-5.328-2.664-5.328 2.664a1.502 1.502 0 0 1-1.584-.15 1.504 1.504 0 0 1-.558-1.485l3-15c.162-.816.984-1.34 1.764-1.176a1.496 1.496 0 0 1 1.176 1.764l-2.4 11.994 3.258-1.629a1.493 1.493 0 0 1 1.344 0l3.258 1.63-2.4-11.995a1.496 1.496 0 0 1 1.176-1.764c.768-.165 1.602.36 1.764 1.176l3 15a1.504 1.504 0 0 1-.558 1.485 1.507 1.507 0 0 1-.912.31"/></g><g><path d="M40.5 66h-39A1.5 1.5 0 0 1 0 64.5v-45c0-.399.159-.78.438-1.062l18-18A1.51 1.51 0 0 1 19.5 0h33A1.5 1.5 0 0 1 54 1.5v36a1.5 1.5 0 0 1-3 0V3H20.121L3 20.121V63h37.5a1.5 1.5 0 0 1 0 3"/></g><g><path d="M19.5 21h-18a1.5 1.5 0 0 1 0-3H18V1.5a1.5 1.5 0 0 1 3 0v18a1.5 1.5 0 0 1-1.5 1.5"/></g><g><path d="M46.5 33h-39a1.5 1.5 0 0 1 0-3h39a1.5 1.5 0 0 1 0 3"/></g><g><path d="M40.5 45h-33a1.5 1.5 0 0 1 0-3h33a1.5 1.5 0 0 1 0 3"/></g><g><path d="M19.5 57h-12a1.5 1.5 0 0 1 0-3h12a1.5 1.5 0 0 1 0 3"/></g><g><path d="M46.5 21h-18a1.5 1.5 0 0 1 0-3h18a1.5 1.5 0 0 1 0 3"/></g></g></g></svg>