<svg xmlns="http://www.w3.org/2000/svg" width="72" height="72" viewBox="0 0 72 72"><g><g><g><path fill="#2d2e2c" d="M35.968 34.302c.85 0 1.547.693 1.547 1.546 0 .854-.696 1.547-1.547 1.547-.85 0-1.546-.693-1.546-1.547 0-.853.696-1.546 1.546-1.546m.004 6.176a4.632 4.632 0 0 0 4.626-4.627 4.632 4.632 0 0 0-6.01-4.416l-5.093-6.791a1.541 1.541 0 0 0-2.467 1.847l5.094 6.796c-.21.315-.383.658-.512 1.021H14.384a1.543 1.543 0 0 0 0 3.085H31.61a4.635 4.635 0 0 0 4.362 3.085m1.543 23.116a1.547 1.547 0 1 0-3.094.002 1.547 1.547 0 0 0 3.094-.002M65.26 35.848a1.547 1.547 0 1 0-3.094.001 1.547 1.547 0 0 0 3.094 0m-55.492 0a1.547 1.547 0 1 0-3.094 0 1.547 1.547 0 0 0 3.094 0M37.515 8.101a1.547 1.547 0 1 0-3.094.001 1.547 1.547 0 0 0 3.094 0m-1.547-4.63c17.853 0 32.376 14.523 32.376 32.375 0 17.853-14.523 32.376-32.376 32.376-17.852 0-32.375-14.523-32.375-32.376 0-17.852 14.523-32.375 32.375-32.375m0 67.834c19.552 0 35.459-15.907 35.459-35.459C71.427 16.297 55.52.39 35.968.39 16.417.39.51 16.297.51 35.848c0 19.552 15.907 35.459 35.458 35.459"/></g></g></g></svg>