<svg xmlns="http://www.w3.org/2000/svg" width="69" height="70" viewBox="0 0 69 70"><g><g><g><path d="M28.604 46.722H1.144C.513 46.722 0 46.202 0 45.56c0-5.054 3.4-9.436 8.27-10.663l7.201-1.809.607-2.441a13.558 13.558 0 0 1-3.463-7.033 3.076 3.076 0 0 1-2.318-2.613l-.478-3.839a3.1 3.1 0 0 1 .732-2.413 3.058 3.058 0 0 1 1.227-.855c-.135-1.184-.327-2.996-.327-3.827 0-3.795 1.123-7.683 9.37-7.872C23.702.27 26.775.27 28.111.27c3.433 0 5.918 1.143 7.387 3.4 1.932 2.97 1 5.031-.123 6.234l-.664.671-.164 3.384c.416.181.791.456 1.096.809.565.657.828 1.53.723 2.394l-.479 3.84a3.077 3.077 0 0 1-2.089 2.545c-.42 2.706-1.737 5.333-3.65 7.272l.575 2.31c.444.252.689.779.558 1.304a1.15 1.15 0 0 1-1.391.843l-.398-.102a1.15 1.15 0 0 1-.831-.843l-.895-3.605a1.168 1.168 0 0 1 .348-1.152c1.986-1.79 3.302-4.457 3.51-7.13a1.151 1.151 0 0 1 1.14-1.069c.478 0 .805-.285.851-.664l.478-3.84a.76.76 0 0 0-.75-.845 1.14 1.14 0 0 1-.82-.364 1.167 1.167 0 0 1-.308-.853l.233-4.8c.014-.29.133-.565.337-.77l.954-.958c.574-.616 1.027-1.52-.149-3.331-1.02-1.563-2.863-2.357-5.478-2.357-1.927 0-4.179.202-6.268 1.704-.19.137-.419.212-.65.214-7.455.074-7.455 3.242-7.455 5.556 0 .926.32 3.67.442 4.647.043.33-.06.664-.277.913a1.126 1.126 0 0 1-.858.395c-.504 0-.694.167-.778.265a.748.748 0 0 0-.179.585l.478 3.839a.763.763 0 0 0 .758.664h.311c.597 0 1.094.465 1.14 1.069.206 2.592 1.46 5.207 3.352 6.993.307.288.43.722.327 1.133l-.936 3.76c-.103.419-.42.742-.833.844L8.82 37.153a8.64 8.64 0 0 0-6.455 7.241l26.24.005c.631 0 1.144.52 1.144 1.161s-.513 1.162-1.144 1.162"/></g><g><path d="M24.024 69.951c-.304 0-.595-.123-.81-.341a1.169 1.169 0 0 1-.334-.82c0-4.996 3.37-9.33 8.204-10.536l7.12-1.786.598-2.392c-1.778-1.877-3.01-4.376-3.426-6.93a3.055 3.055 0 0 1-2.297-2.592l-.474-3.784a3.06 3.06 0 0 1 1.936-3.24c-.133-1.173-.32-2.94-.32-3.767 0-3.751 1.112-7.6 9.29-7.783 2.854-1.9 5.9-1.9 7.225-1.9 3.4 0 5.864 1.129 7.322 3.358 1.927 2.948.993 4.987-.128 6.179l-.648.654-.162 3.32c.412.18.782.455 1.082.8a3.08 3.08 0 0 1 .719 2.377l-.474 3.788a3.06 3.06 0 0 1-2.07 2.525c-.42 2.666-1.72 5.253-3.614 7.167l.558 2.22 7.122 1.786a10.829 10.829 0 0 1 8.203 10.531c0 .641-.513 1.161-1.144 1.161zm42.256-2.323a8.52 8.52 0 0 0-6.382-7.118h-.002l-7.792-1.954a1.154 1.154 0 0 1-.833-.843l-.89-3.556c-.105-.42.03-.866.352-1.154 1.964-1.767 3.261-4.392 3.47-7.026a1.151 1.151 0 0 1 1.139-1.068c.469 0 .79-.276.835-.646l.474-3.786a.737.737 0 0 0-.732-.815 1.14 1.14 0 0 1-.822-.364 1.17 1.17 0 0 1-.309-.853l.231-4.74c.014-.29.133-.565.337-.769l.942-.948c.568-.606 1.016-1.486-.146-3.265-1.01-1.54-2.828-2.32-5.416-2.32-1.909 0-4.138.2-6.204 1.681-.19.135-.417.21-.648.211-6.821.07-7.375 2.516-7.375 5.468 0 .913.316 3.618.437 4.585.044.33-.057.664-.277.912-.217.251-.528.395-.858.395-.494 0-.68.16-.762.258a.706.706 0 0 0-.174.564l.474 3.784a.742.742 0 0 0 .74.648h.308c.597 0 1.094.464 1.14 1.068.203 2.553 1.441 5.129 3.313 6.887.307.29.435.724.332 1.138l-.927 3.711c-.103.416-.426.741-.835.843l-7.79 1.954a8.517 8.517 0 0 0-6.384 7.114z"/></g><g><path d="M58.352 21.173c-.148 0-.3-.03-.44-.09a1.159 1.159 0 0 1-.704-1.078l.053-9.797c0-4.194-3.298-7.615-7.353-7.615h-7.574c-.631 0-1.144-.52-1.144-1.162 0-.64.513-1.161 1.144-1.161h7.574c5.316 0 9.641 4.462 9.641 9.945l-.037 6.977 2.607-2.647a1.136 1.136 0 0 1 1.62 0c.446.455.446 1.189 0 1.644l-4.577 4.645c-.22.22-.512.34-.81.34"/></g><g><path d="M58.351 21.178a1.14 1.14 0 0 1-.81-.339l-4.576-4.645a1.177 1.177 0 0 1 0-1.644 1.136 1.136 0 0 1 1.62 0l4.576 4.645c.447.455.447 1.189 0 1.644a1.14 1.14 0 0 1-.81.34"/></g><g><path d="M19.455 69.943h-.71c-5.316 0-9.64-4.462-9.64-9.945l.036-6.977-2.606 2.647a1.136 1.136 0 0 1-1.62 0 1.177 1.177 0 0 1 0-1.644L9.49 49.38c.332-.335.83-.43 1.25-.249.43.182.707.607.704 1.078l-.052 9.797c0 4.194 3.297 7.615 7.352 7.615h.71c.631 0 1.144.52 1.144 1.162 0 .64-.513 1.161-1.144 1.161"/></g><g><path d="M14.871 56.008a1.14 1.14 0 0 1-.81-.339l-4.576-4.645a1.177 1.177 0 0 1 0-1.644 1.136 1.136 0 0 1 1.62 0l4.576 4.645c.447.455.447 1.189 0 1.644a1.14 1.14 0 0 1-.81.34"/></g></g></g></svg>