<svg xmlns="http://www.w3.org/2000/svg" width="71" height="80" viewBox="0 0 71 80"><g><g><g><path d="M37.918 79.937a1.32 1.32 0 0 1-1.308-1.323c0-3.859 2.586-7.208 6.284-8.141l4.862-1.23.3-1.22a10.327 10.327 0 0 1-2.374-4.856c-.947-.368-1.585-1.175-1.705-2.159l-.343-2.759a2.726 2.726 0 0 1 1.36-2.703c-.091-.838-.196-1.915-.196-2.463 0-2.772.814-5.951 7.038-6.147 2.144-1.386 4.378-1.386 5.36-1.386 3.275 0 4.904 1.45 5.694 2.666 1.635 2.53.615 4.27-.138 5.082l-.356.36-.094 1.938c.238.146.457.328.646.545.497.577.73 1.344.638 2.106l-.343 2.764a2.698 2.698 0 0 1-1.543 2.121 10.265 10.265 0 0 1-2.505 5.02l.27 1.09 4.86 1.23c3.701.934 6.283 4.28 6.283 8.14 0 .73-.584 1.322-1.308 1.322zm29.915-2.655a5.7 5.7 0 0 0-4.148-4.25l-5.624-1.425a1.31 1.31 0 0 1-.951-.962l-.64-2.589a1.334 1.334 0 0 1 .394-1.303c1.312-1.196 2.212-3.036 2.353-4.808a1.31 1.31 0 0 1 1.302-1.219l.465-2.81c-.356-.003-.724-.186-.965-.447-.243-.262-.402-.64-.384-1l.165-3.453c.015-.328.151-.64.384-.873l.685-.69c.212-.23.578-.624-.175-1.788-.64-.989-1.786-1.47-3.503-1.47-.853 0-2.623 0-4.188 1.132-.22.159-.481.243-.748.246-4.844.05-4.844 1.808-4.844 3.509 0 .568.19 2.319.31 3.284.048.375-.067.754-.316 1.04a1.29 1.29 0 0 1-.98.446l.144 2.824.277.05c.682 0 1.25.53 1.302 1.217.138 1.747.978 3.511 2.245 4.714.348.328.49.82.374 1.285l-.666 2.703a1.31 1.31 0 0 1-.955.962l-5.62 1.426a5.7 5.7 0 0 0-4.15 4.246z"/></g><g><path d="M56.224 40.267a1.316 1.316 0 0 1-1.308-1.323V15.728c0-1.056-.881-1.913-1.961-1.913h-9.807a1.316 1.316 0 0 1-1.308-1.322c0-.73.586-1.323 1.308-1.323h9.807c2.523 0 4.576 2.042 4.576 4.558v23.216c0 .73-.586 1.323-1.307 1.323"/></g><g><path d="M30.075 79.944H4.506C2.019 79.944 0 77.881 0 75.347v-59.58c0-2.534 2.019-4.597 4.506-4.597h9.878c.721 0 1.307.593 1.307 1.323s-.586 1.322-1.307 1.322H4.506c-1.043 0-1.89.876-1.89 1.952v59.58c0 1.076.847 1.952 1.89 1.952h25.569c.722 0 1.307.593 1.307 1.323s-.585 1.322-1.307 1.322"/></g><g><path d="M14.388 16.461a1.316 1.316 0 0 1-1.308-1.323v-5.29c0-2.187 1.76-3.968 3.923-3.968h6.538c0-2.917 2.346-5.29 5.23-5.29 2.885 0 5.23 2.373 5.23 5.29h6.539c2.162 0 3.922 1.78 3.922 3.968v5.29c0 .73-.585 1.323-1.307 1.323zm1.307-2.645h26.152V9.848c0-.727-.588-1.323-1.307-1.323h-7.846a1.316 1.316 0 0 1-1.308-1.322V5.88c0-1.46-1.171-2.645-2.615-2.645-1.443 0-2.615 1.185-2.615 2.645v1.323c0 .73-.586 1.322-1.308 1.322h-7.845c-.72 0-1.308.596-1.308 1.323z"/></g><g><path d="M32.688 8.519c-.34 0-.68-.132-.918-.397a1.255 1.255 0 0 1-.39-.926c0-.343.13-.687.39-.928.473-.5 1.336-.5 1.833-.024.261.291.392.609.392.952 0 .344-.13.662-.369.926-.285.265-.598.397-.938.397"/></g></g></g></svg>