<svg xmlns="http://www.w3.org/2000/svg" width="69" height="70" viewBox="0 0 69 70"><g><g><g><path d="M13.731 56.01c-.036 0-.07-.003-.105-.006L1.04 54.844a1.153 1.153 0 0 1-1.039-1.209L2.29 1.377c.013-.315.15-.61.386-.82.234-.21.536-.301.85-.285l36.802 3.063c.63.054 1.099.613 1.046 1.252-.05.641-.6 1.11-1.233 1.062L4.523 2.685 2.335 52.63l11.497 1.061a1.16 1.16 0 0 1 1.036 1.261 1.15 1.15 0 0 1-1.137 1.057"/></g><g><path d="M14.875 60.805c-.23 0-.455-.07-.647-.204a1.155 1.155 0 0 1-.479-.755L5.17 10.491a1.162 1.162 0 0 1 .935-1.347L58.163.288c.597-.111 1.192.304 1.314.927l6.864 36a1.164 1.164 0 0 1-.906 1.36 1.157 1.157 0 0 1-1.34-.921L57.441 2.766l-49.82 8.475 8.175 47.035 22.883-4.562c.63-.13 1.225.284 1.344.915.123.63-.282 1.24-.9 1.364l-24.027 4.789a1.045 1.045 0 0 1-.222.023"/></g><g><path d="M40.044 69.944a1.161 1.161 0 0 1-1.144-1.161c0-3.39 2.263-6.33 5.499-7.15l4.254-1.08.263-1.07a9.08 9.08 0 0 1-2.078-4.265c-.828-.322-1.387-1.03-1.492-1.895l-.3-2.422a2.4 2.4 0 0 1 .57-1.868c.179-.206.39-.376.62-.506-.08-.736-.171-1.682-.171-2.162 0-2.434.711-5.226 6.158-5.398 1.876-1.217 3.83-1.217 4.69-1.217 2.865 0 4.291 1.273 4.982 2.341 1.43 2.22.538 3.749-.121 4.462l-.311.316-.083 1.702c.209.128.4.288.566.479.434.506.638 1.18.558 1.848l-.3 2.427a2.369 2.369 0 0 1-1.35 1.863 9.025 9.025 0 0 1-2.192 4.408l.235.957 4.254 1.08c3.238.82 5.497 3.758 5.497 7.147 0 .641-.51 1.161-1.144 1.161zM66.23 67.62a4.998 4.998 0 0 0-3.631-3.732l-4.922-1.252a1.15 1.15 0 0 1-.833-.845l-.561-2.274a1.175 1.175 0 0 1 .346-1.145c1.148-1.05 1.935-2.666 2.059-4.222a1.148 1.148 0 0 1 1.14-1.07l.407-2.47a1.208 1.208 0 0 1-.845-.392 1.251 1.251 0 0 1-.336-.878l.144-3.033c.014-.288.133-.562.337-.766l.6-.606c.185-.202.505-.549-.154-1.57-.56-.869-1.563-1.292-3.066-1.292-.746 0-2.296 0-3.666.994-.193.14-.421.214-.655.216-4.24.044-4.24 1.589-4.24 3.082 0 .5.167 2.037.272 2.885.041.33-.06.662-.277.912-.215.251-.528.393-.858.393l.126 2.48.243.044c.597 0 1.094.465 1.14 1.069.12 1.535.855 3.084 1.965 4.14.304.289.428.72.327 1.13l-.583 2.373a1.148 1.148 0 0 1-.836.845l-4.92 1.252a4.999 4.999 0 0 0-3.631 3.73z"/></g></g></g></svg>