<svg xmlns="http://www.w3.org/2000/svg" width="68" height="70" viewBox="0 0 68 70"><g><g><g><path d="M3.67 70a3.5 3.5 0 0 1-3.5-3.5v-63C.17 1.587 1.74 0 3.67 0h14c1.93 0 3.5 1.587 3.5 3.5v63a3.5 3.5 0 0 1-3.5 3.5zM2.503 3.5v63.01c0 .653.523 1.167 1.168 1.167h14.008c.645 0 1.168-.514 1.168-1.167V3.5c0-.63-.523-1.167-1.168-1.167H3.671c-.645 0-1.168.537-1.168 1.167z"/></g><g><path d="M13.003 18.663H8.337a1.161 1.161 0 0 1-1.167-1.166c0-.63.523-1.167 1.167-1.167h4.666c.644 0 1.167.537 1.167 1.167 0 .653-.523 1.166-1.167 1.166"/></g><g><path d="M13.003 14.003H8.337a1.161 1.161 0 0 1-1.167-1.166c0-.63.523-1.167 1.167-1.167h4.666c.644 0 1.167.537 1.167 1.167 0 .653-.523 1.166-1.167 1.166"/></g><g><path d="M13.003 9.333H8.337A1.161 1.161 0 0 1 7.17 8.167C7.17 7.537 7.693 7 8.337 7h4.666c.644 0 1.167.537 1.167 1.167 0 .653-.523 1.166-1.167 1.166"/></g><g><path d="M7.17 57.17c0-1.913 1.57-3.5 3.5-3.5s3.5 1.587 3.5 3.5a3.5 3.5 0 1 1-7 0zm2.333.005c0 .656.525 1.172 1.172 1.172.647 0 1.172-.516 1.172-1.172 0-.633-.525-1.172-1.172-1.172-.647 0-1.172.54-1.172 1.172z"/></g><g><path d="M27 70a3.5 3.5 0 0 1-3.5-3.5v-63C23.5 1.587 25.07 0 27 0h14c1.93 0 3.5 1.587 3.5 3.5v63A3.5 3.5 0 0 1 41 70zM25.833 3.5v63.01c0 .653.523 1.167 1.168 1.167h14.008c.645 0 1.168-.514 1.168-1.167V3.5c0-.63-.523-1.167-1.168-1.167H27.001c-.645 0-1.168.537-1.168 1.167z"/></g><g><path d="M36.333 18.663h-4.666a1.161 1.161 0 0 1-1.167-1.166c0-.63.523-1.167 1.167-1.167h4.666c.644 0 1.167.537 1.167 1.167 0 .653-.523 1.166-1.167 1.166"/></g><g><path d="M36.333 14.003h-4.666a1.161 1.161 0 0 1-1.167-1.166c0-.63.523-1.167 1.167-1.167h4.666c.644 0 1.167.537 1.167 1.167 0 .653-.523 1.166-1.167 1.166"/></g><g><path d="M36.333 9.333h-4.666A1.161 1.161 0 0 1 30.5 8.167c0-.63.523-1.167 1.167-1.167h4.666c.644 0 1.167.537 1.167 1.167 0 .653-.523 1.166-1.167 1.166"/></g><g><path d="M30.5 57.17c0-1.913 1.57-3.5 3.5-3.5s3.5 1.587 3.5 3.5a3.5 3.5 0 1 1-7 0zm2.333.005c0 .656.525 1.172 1.172 1.172.647 0 1.172-.516 1.172-1.172 0-.633-.525-1.172-1.172-1.172-.647 0-1.172.54-1.172 1.172z"/></g><g><path d="M50.33 70a3.5 3.5 0 0 1-3.5-3.5v-63c0-1.913 1.57-3.5 3.5-3.5h14c1.93 0 3.5 1.587 3.5 3.5v63a3.5 3.5 0 0 1-3.5 3.5zM49.163 3.5v63.01c0 .653.523 1.167 1.168 1.167h14.008c.645 0 1.168-.514 1.168-1.167V3.5c0-.63-.523-1.167-1.168-1.167H50.331c-.645 0-1.168.537-1.168 1.167z"/></g><g><path d="M59.663 18.663h-4.666a1.161 1.161 0 0 1-1.167-1.166c0-.63.523-1.167 1.167-1.167h4.666c.644 0 1.167.537 1.167 1.167 0 .653-.523 1.166-1.167 1.166"/></g><g><path d="M59.663 14.003h-4.666a1.161 1.161 0 0 1-1.167-1.166c0-.63.523-1.167 1.167-1.167h4.666c.644 0 1.167.537 1.167 1.167 0 .653-.523 1.166-1.167 1.166"/></g><g><path d="M59.663 9.333h-4.666a1.161 1.161 0 0 1-1.167-1.166c0-.63.523-1.167 1.167-1.167h4.666c.644 0 1.167.537 1.167 1.167 0 .653-.523 1.166-1.167 1.166"/></g><g><path d="M53.83 57.17c0-1.913 1.57-3.5 3.5-3.5s3.5 1.587 3.5 3.5a3.5 3.5 0 1 1-7 0zm2.333.005c0 .656.525 1.172 1.172 1.172.647 0 1.172-.516 1.172-1.172 0-.633-.525-1.172-1.172-1.172-.647 0-1.172.54-1.172 1.172z"/></g></g></g></svg>