<svg xmlns="http://www.w3.org/2000/svg" width="64" height="62" viewBox="0 0 64 62"><g><g><g><path d="M9.333 61.333C4.187 61.333 0 57.147 0 52V25.333C0 20.187 4.187 16 9.333 16h45.334C59.813 16 64 20.187 64 25.333V52c0 5.147-4.187 9.333-9.333 9.333zm-6.666-36V52a6.674 6.674 0 0 0 6.665 6.667h45.326A6.674 6.674 0 0 0 61.323 52V25.333a6.674 6.674 0 0 0-6.665-6.666H9.332a6.674 6.674 0 0 0-6.665 6.666z"/></g><g><path d="M48 38.67c0-2.205 1.795-4 4-4s4 1.795 4 4-1.795 4-4 4-4-1.795-4-4zm2.667-.005a1.33 1.33 0 0 0 1.328 1.328 1.33 1.33 0 0 0 1.328-1.328 1.33 1.33 0 0 0-1.328-1.328 1.33 1.33 0 0 0-1.328 1.328z"/></g><g><path d="M52.003 47.997c-5.146 0-9.333-4.187-9.333-9.334 0-5.146 4.187-9.333 9.333-9.333H62.67c.736 0 1.333.597 1.333 1.333v16c0 .736-.597 1.334-1.333 1.334zm-6.666-9.334a6.674 6.674 0 0 0 6.666 6.667h9.334V31.997h-9.334a6.674 6.674 0 0 0-6.666 6.666z"/></g><g><path d="M53.333 18.663c-.488 0-.957-.27-1.192-.736L46.496 6.634a6.618 6.618 0 0 0-3.952-3.373 6.6 6.6 0 0 0-5.17.488L9.964 18.503a1.333 1.333 0 0 1-1.264-2.346L36.106 1.399A9.287 9.287 0 0 1 43.35.72a9.258 9.258 0 0 1 5.53 4.723l5.646 11.29a1.334 1.334 0 0 1-1.192 1.931"/></g><g><path d="M28.193 18.663a1.334 1.334 0 0 1-.632-2.507L47.371 5.49a1.333 1.333 0 0 1 1.265 2.346L28.828 18.503c-.203.11-.422.16-.635.16"/></g><g><path d="M1.333 26.667A1.334 1.334 0 0 1 0 25.333v-2.666C0 14.579 6.581 8 14.667 8H24a1.334 1.334 0 0 1 0 2.667h-9.333c-6.616 0-12 5.384-12 12v2.666c0 .736-.598 1.334-1.334 1.334"/></g><g><path d="M62.667 26.667a1.334 1.334 0 0 1-1.334-1.334v-2.666c0-6.616-5.384-12-12-12a1.334 1.334 0 0 1 0-2.667C57.42 8 64 14.579 64 22.667v2.666c0 .736-.597 1.334-1.333 1.334"/></g></g></g></svg>